<svg xmlns="http://www.w3.org/2000/svg" width="1440" height="513" fill="none"><path stroke="url(#a)" stroke-linecap="round" stroke-linejoin="round" stroke-miterlimit="10" stroke-opacity=".08" d="M23.864 509.255 35.05 513m-11.186-3.745h33.15m-33.15 0-11.558-3.868m11.558 3.868H.387M35.05 513l-4.07-.002-4.028-.008-3.945-.022-3.82-.045-3.656-.073-3.45-.11-3.204-.152-2.975-.195-2.552-.268-2.324-.312-.639-.109v-2.449M35.05 513h32.617m0 0h32.616m-32.616 0-10.654-3.745m43.27 3.745H132.9m-32.617 0-10.12-3.745M132.9 513h32.617m-32.617 0-9.588-3.745M165.517 513h32.616m-32.616 0-9.056-3.745M198.133 513h32.617m-32.617 0-8.523-3.745M230.75 513h32.617m-32.617 0-7.99-3.745M263.367 513h32.616m-32.616 0-7.458-3.745M295.983 513H328.6m-32.617 0-6.924-3.745M328.6 513h32.617m-32.617 0-6.392-3.745M361.217 513h32.616m-32.616 0-5.86-3.745M393.833 513h32.617m-32.617 0-5.326-3.745M426.45 513h32.617m-32.617 0-1.184-.925-1.794-1.401-1.816-1.419M459.067 513h32.616m-32.616 0-1.052-.925-3.209-2.82M491.683 513H524.3m-32.617 0-3.728-3.745M524.3 513h32.617m-32.617 0-1.186-1.39-1.202-1.407-.403-.473-.405-.475M556.917 513h32.616m-32.616 0-.989-1.39-.332-.467-.334-.469-1.009-1.419m35.28 3.745h32.617m-32.617 0-2.131-3.745M622.15 513l-.197-.462-.197-.463-1.001-2.345-.203-.475M622.15 513h32.616m0 0h32.618m-32.618 0-1.065-3.745M687.384 513H720m-32.616 0-.198-1.39-.335-2.355M720 513h32.616M720 513v-3.745M752.616 513h32.618m-32.618 0 .198-1.39.335-2.355M785.234 513h32.616m-32.616 0 1.065-3.745M817.85 513l.197-.461.197-.464 1.001-2.345.203-.475M817.85 513h32.616m0 0h32.618m-32.618 0 1.861-3.27.271-.475M883.084 513H915.7m-32.616 0 .988-1.39.332-.467.669-.94.336-.473.338-.475M915.7 513h32.617m-32.617 0 1.186-1.39 1.201-1.407.404-.473.405-.475M948.317 513h32.616m-32.616 0 3.728-3.745M980.933 513h32.617m-32.617 0 1.052-.925 3.209-2.82M1013.55 513h32.62m-32.62 0 4.79-3.745m27.83 3.745h32.61m-32.61 0 5.32-3.745m27.29 3.745h32.62m-32.62 0 5.86-3.745M1111.4 513h32.62m-32.62 0 6.39-3.745m26.23 3.745h32.61m-32.61 0 6.92-3.745m25.69 3.745h32.62m-32.62 0 7.46-3.745m25.16 3.745h32.62m-32.62 0 7.99-3.745m24.63 3.745h32.61m-32.61 0 8.52-3.745m24.09 3.745h32.62m-32.62 0 9.06-3.745M1307.1 513h32.62m-32.62 0 9.59-3.745m23.03 3.745h32.61m-32.61 0 10.12-3.745m22.49 3.745h32.62m-32.62 0 10.66-3.745m21.96 3.745 4.07-.001 4.03-.009 3.94-.022 3.82-.045 3.66-.073 3.45-.11 3.2-.152 2.98-.194 2.55-.269 2.32-.311.64-.109v-2.45M1404.95 513l11.19-3.745m-66.3 0h-33.15m33.15 0h33.15m-33.15 0 10.45-3.868m-43.6 3.868 9.91-3.868m-9.91 3.868h-33.15m-66.3 0h-33.15m33.15 0h33.15m-33.15 0 2.04-.955 6.22-2.913m-41.41 3.868 7.71-3.868m-7.71 3.868h-33.15m-66.3 0h-33.15m33.15 0h33.15m-33.15 0 1.5-.955.75-.48 3.81-2.433m-39.21 3.868.68-.476.68-.479 4.15-2.913m-5.51 3.868h-33.15m-66.295 0 .475-.476 3.378-3.392m-3.853 3.868h-33.149m33.149 0h33.149m-66.298 0 .815-.955.411-.48.411-.483 1.665-1.95m-3.302 3.868h-33.149m-66.299 0h-33.149m33.149 0h33.15m-33.15 0 1.651-3.868m-34.8 3.868.135-.476.136-.479.137-.48.414-1.453.278-.98m-1.1 3.868h-33.15m-66.298 0h-33.15m33.15 0H720m-33.149 0-.551-3.868m-32.599 3.868-.135-.476-.136-.479-.137-.48-.692-2.433m1.1 3.868h-33.149m-66.299 0h-33.149m33.149 0h33.149m-33.149 0-.679-.955-1.376-1.933-.347-.489-.35-.491m-30.397 3.868-.815-.955-.411-.48-.412-.483-1.664-1.95m3.302 3.868h-33.149m-66.299 0h-33.149m33.149 0h33.15m-33.15 0-1.223-.955-.616-.48-3.114-2.433m-28.196 3.868-.679-.476-.68-.479-4.145-2.913m5.504 3.868h-33.15m-66.298 0h-33.15m33.15 0h33.149m-33.149 0-1.767-.955-.889-.48-4.499-2.433m-25.995 3.868-7.705-3.868m7.705 3.868H222.76m-66.299 0h-33.149m33.149 0h33.149m-33.149 0-9.356-3.868m-23.793 3.868-9.907-3.868m9.907 3.868h-33.15m1349.568-35.017h-.12m-33.25 0-12.65 4.942m12.65-4.942 13.14-5.131m-13.14 5.131h-38.13m38.13 0h33.25m-45.9 4.942h37.43m-37.43 0-12.2 4.763m12.2-4.763h-37.43m74.86 0-12.88 4.763m12.88-4.763h8.47m-8.47 0 8.47-3.135m-45.75 16.926h-35.47m35.47 0-11.57 4.281m11.57-4.281h35.46m-35.46 0 11.98-4.434m-47.45 4.434-10.96 4.281m10.96-4.281 11.35-4.434m-11.35 4.434h-35.46m59.36 4.281h-34.86m34.86 0-11.19 4.136m11.19-4.136h34.85m-69.71 0h-34.86m34.86 0-10.59 4.136m103.14-105.155h-.37m-30.4 0-16.32 8.193m16.32-8.193 17.13-8.601m-17.13 8.601h-49.23m49.23 0h30.4m-46.72 8.193-15.57 7.815m15.57-7.815h-48.06m48.06 0h46.72m-15.33 7.815h-46.96m46.96 0-15.93 7.461m15.93-7.461h15.33m-15.33 0 15.33-7.187m-46.48 21.78h-44.87m44.87 0-14.56 6.822m14.56-6.822h44.88m-44.88 0 15.22-7.132m-60.09 7.132-13.59 6.822m13.59-6.822 14.2-7.132m-14.2 7.132h-44.88m75.19 6.822h-43.9m43.9 0h43.91m-43.91 0-13.94 6.534m-29.96-6.534-13.01 6.534m13.01-6.534h-43.91m47.68 18.806h-41.23m41.23 0-12.31 5.769m12.31-5.769h41.23m-41.23 0 12.83-6.009m-54.06 6.009-11.49 5.769m11.49-5.769 11.97-6.009m-11.97 6.009h-41.23m70.15 5.769h-40.41m40.41 0h40.41m-40.41 0-11.83 5.544m-28.58-5.544-11.04 5.544m11.04-5.544h-40.41m46.66 16.007h-38.13m38.13 0-10.55 4.942m10.55-4.942h38.13m-38.13 0 10.95-5.131m-49.08 5.131-9.85 4.942m9.85-4.942 10.22-5.131m-10.22 5.131h-38.13m65.71 4.942h-37.43m37.43 0h37.43m-37.43 0-10.16 4.763m-27.27-4.763-9.48 4.763m9.48-4.763h-37.42m45.42 13.791h-35.46m35.46 0-9.13 4.281m9.13-4.281h35.47m-35.47 0 9.46-4.434m-44.92 4.434-8.53 4.281m8.53-4.281 8.83-4.434m-8.83 4.434h-35.47m61.8 4.281H1208m34.86 0-8.83 4.136m8.83-4.136h34.85m-69.71 0h-34.86m34.86 0-8.24 4.136m214.63-247.207-22.97 16.145m22.97-16.145 24.6-17.289m-24.6 17.289h-69.44m69.44 0h25.22m-48.19 16.145-21.5 15.111m21.5-15.111h-67.14m67.14 0h48.19m-47.72 42.605h-61.08m61.08 0-19.63 12.542m19.63-12.542 20.84-13.321m-20.84 13.321h47.72m-108.8 0-17.85 12.542m17.85-12.542 18.95-13.321m-18.95 13.321h-61.08m102.53 12.542h-59.3m59.3 0h59.3m-59.3 0-18.51 11.83m-40.79-11.83-16.83 11.83m16.83-11.83h-59.29m66.03 33.584h-54.52m54.52 0-15.69 10.023m15.69-10.023h54.52m-54.52 0 16.55-10.577m-71.07 10.577-14.26 10.023m14.26-10.023 15.05-10.577m-15.05 10.577h-54.52m93.35 10.023h-53.09m53.09 0h53.1m-53.1 0-14.88 9.512m-38.21-9.512-13.53 9.512m13.53-9.512h-53.09m63.69 27.153h-49.23m49.23 0-12.82 8.193m12.82-8.193h49.23m-49.23 0 13.46-8.601m-62.69 8.601-11.65 8.193m11.65-8.193 12.24-8.601m-12.24 8.601h-49.23m85.64 8.193h-48.06m48.06 0h48.06m-48.06 0-12.23 7.815m-35.83-7.815-11.12 7.815m11.12-7.815h-48.07m61.06 22.408h-44.87m44.87 0-10.68 6.822m10.68-6.822h44.88m-44.88 0 11.16-7.132m-56.03 7.132-9.71 6.822m9.71-6.822 10.14-7.132m-10.14 7.132h-44.88m79.07 6.822h-43.9m43.9 0h43.91m-43.91 0-10.22 6.534m-33.68-6.534-9.3 6.534m9.3-6.534h-43.91m58.38 18.806h-41.22m41.22 0-9.02 5.769m9.02-5.769h41.23m-41.23 0 9.41-6.009m-50.63 6.009-1.05.733-7.16 5.036m8.21-5.769 8.54-6.009m-8.54 6.009h-41.23m73.43 5.769h-40.41m40.41 0h40.4m-40.4 0-8.68 5.544m-31.73-5.544-7.89 5.544m7.89-5.544h-40.41m55.76 16.007h-38.13m38.13 0-7.73 4.942m7.73-4.942h38.14m-38.14 0 8.04-5.131m-46.17 5.131-7.03 4.942m7.03-4.942 2.71-1.902 4.59-3.229m-7.3 5.131h-38.13m68.53 4.942h-37.43m37.43 0h37.43m-37.43 0-7.45 4.763m-29.98-4.763-6.77 4.763m6.77-4.763h-37.43m53.28 13.791h-35.47m35.47 0-6.7 4.281m6.7-4.281h35.46m-35.46 0 6.94-4.434m-42.41 4.434-4.59 3.224-.75.53-.75.527m6.09-4.281 6.31-4.434m-6.31 4.434h-35.46m64.23 4.281h-34.86m34.86 0-6.47 4.136m6.47-4.136h34.86m-69.72 0h-34.86m34.86 0-5.88 4.136m326.54-431.12h-95.6m95.6 0-30.1 30.228m30.1-30.227 33.08-33.217m-33.08 33.217 50.38-.001m-145.98 0-25.81 30.228m25.81-30.227 28.35-33.217m-28.35 33.217h-95.61m161.11 30.227h-91.31m91.31 0-27.51 27.625m27.51-27.625h80.48m-171.79 0-23.58 27.625m23.58-27.625h-91.3m106.61 76.307h-80.44m80.44 0-21.46 21.557m21.46-21.557h80.45m-80.45 0 23.24-23.336m-103.68 23.336-18.41 21.557m18.41-21.557 19.92-23.336m-19.92 23.336h-80.45m139.43 21.557h-77.39m77.39 0h77.38m-77.38 0-19.9 19.973m-57.49-19.973-17.05 19.973m17.05-19.973h-77.38m99.17 55.821h-69.44m69.44 0-16.08 16.145m16.08-16.145h69.44m-69.44 0 17.22-17.289m-86.66 17.289-13.78 16.145m13.78-16.145 14.76-17.289m-14.76 17.289h-69.43m122.79 16.145h-67.14m67.14 0h67.15m-67.15 0-15.04 15.111m-52.1-15.111-12.9 15.111m12.9-15.111h-67.14m91.86 42.605h-61.09m61.09 0-12.5 12.542m12.5-12.542h61.08m-61.08 0 13.26-13.321m-74.35 13.321-10.7 12.542m10.7-12.542 11.38-13.321m-11.38 13.321h-61.08m109.67 12.542h-59.29m59.29 0h59.3m-59.3 0-11.78 11.83m-47.51-11.83-10.1 11.83m10.1-11.83h-59.3m85.15 33.584h-54.52m54.52 0-9.98 10.023m9.98-10.023h54.52m-54.52 0 10.53-10.577m-65.05 10.577-8.56 10.023m8.56-10.023 9.03-10.577m-9.03 10.577h-54.519m99.059 10.023h-53.1m53.1 0h53.09m-53.09 0-9.48 9.512m-43.62-9.512-8.12 9.512m8.12-9.512h-53.089m79.139 27.153h-49.22m49.22 0-8.16 8.193m8.16-8.193h49.23m-49.23 0 8.57-8.601m-57.79 8.601-7 8.193m7-8.193 7.34-8.601m-7.34 8.601h-49.234m90.294 8.193h-48.06m48.06 0h48.07m-48.07 0-7.78 7.815m-40.28-7.815-6.67 7.815m6.67-7.815h-48.062m73.812 22.408h-44.877m44.877 0-6.8 6.822m6.8-6.822H1079m-44.87 0 7.1-7.132m-51.977 7.132-5.823 6.822m5.823-6.822 6.088-7.132m-6.088 7.132h-44.875m82.952 6.822h-43.9m43.9 0h43.91m-43.91 0-6.5 6.534m-37.4-6.534-5.578 6.534m5.578-6.534h-43.906m69.086 18.806h-41.234m41.234 0-5.75 5.769m5.75-5.769h41.23m-41.23 0 5.98-6.009m-47.214 6.009.631-.738 4.499-5.271m-5.13 6.009-4.924 5.769m4.924-5.769h-41.229m76.713 5.769h-40.408m40.408 0h40.41m-40.41 0-5.521 5.544m-34.887-5.544-4.733 5.544m4.733-5.544h-40.409m64.876 16.007h-38.131m38.131 0-4.922 4.942m4.922-4.942h38.131m-38.131 0 5.11-5.131m-43.241 5.131-4.219 4.942m4.219-4.942 1.623-1.902 1.095-1.282 1.662-1.947m-4.38 5.131h-38.131m71.34 4.942h-37.428m37.428 0h37.433m-37.433 0-4.743 4.763m-32.685-4.763-1.542 1.807-1.017 1.191-1.507 1.765m4.066-4.763h-37.428m61.122 13.791h-35.465m35.465 0-3.211 3.224-1.052 1.057m4.263-4.281h35.467m-35.467 0 3.855-3.871.56-.563m-39.88 4.434-2.754 3.224-.451.53-.45.527m3.655-4.281 1.875-2.197 1.909-2.237m-3.784 4.434h-35.467M964 497.252h-34.857m34.857 0-4.119 4.136m4.119-4.136h34.857m-69.714 0h-34.857m34.857 0-3.531 4.136m81.198-431.12h-95.601m95.601 0-12.898 30.228m12.898-30.227h95.61m-95.61 0 14.18-33.217M911.209 70.27l-8.601 30.227m8.601-30.227 9.451-33.217m-9.451 33.217h-95.605m178.308 30.227h-91.304m91.304 0h91.308m-91.308 0-11.791 27.625m-79.513-27.625-7.861 27.625m7.861-27.625h-91.304m150.039 76.307h-80.447m80.447 0-9.201 21.557m9.201-21.557h80.447m-80.447 0 9.961-23.336m-90.408 23.336-6.134 21.557m6.134-21.557 6.639-23.336m-6.639 23.336h-80.449m151.695 21.557h-77.38m77.38 0h77.378m-77.378 0-8.525 19.973m-68.855-19.973-5.684 19.973m5.684-19.973h-77.381m130.936 55.821h-69.439m69.439 0-6.891 16.145m6.891-16.145h69.439m-69.439 0 7.379-17.289m-76.818 17.289-4.594 16.145m4.594-16.145 4.919-17.289m-4.919 17.289h-69.439m131.987 16.145h-67.142m67.142 0h67.142m-67.142 0-6.449 15.111m-60.693-15.111-4.3 15.111m4.3-15.111h-67.142m116.1 42.605h-61.08m61.08 0-5.353 12.542m5.353-12.542h61.081m-61.081 0 5.685-13.321m-66.765 13.321-3.569 12.542m3.569-12.542 3.79-13.321m-3.79 13.321h-61.081m116.808 12.542h-59.296m59.296 0h59.296m-59.296 0-5.049 11.83m-54.247-11.83-3.367 11.83m3.367-11.83h-59.297m104.259 33.584h-54.519m54.519 0-4.278 10.023m4.278-10.023h54.518m-54.518 0 4.514-10.577m-59.033 10.577-2.851 10.023m2.851-10.023 3.01-10.577m-3.01 10.577h-54.518m104.759 10.023h-53.092m53.092 0h53.092m-53.092 0-4.06 9.512m-49.032-9.512-2.707 9.512m2.707-9.512h-53.093m94.596 27.153h-49.229m49.229 0-3.497 8.193m3.497-8.193h49.229m-49.229 0 3.67-8.601m-52.899 8.601-2.332 8.193m2.332-8.193 2.447-8.601m-2.447 8.601h-49.23m94.962 8.193h-48.064m48.064 0h48.063m-48.063 0-1.27 2.974-2.066 4.841m-44.728-7.815-2.224 7.815m2.224-7.815h-48.064m86.564 22.408h-44.876m44.876 0-2.912 6.822m2.912-6.822h44.876m-44.876 0 2.269-5.319.775-1.813m-47.92 7.132-.738 2.593-1.203 4.229m1.941-6.822 2.03-7.132m-2.03 7.132h-44.876m86.84 6.822-.355.832-2.434 5.702m2.789-6.534H807.81m43.905 0h43.905m-87.81 0-.707 2.483-.232.819-.233.814-.687 2.418m1.859-6.534h-43.905m79.784 18.805h-41.23m41.23 0-1.244 2.914-.307.719-.305.716-.305.712-.302.709m2.463-5.77h41.229m-41.229 0 2.564-6.008m-43.794 6.008-1.237 4.349-.203.712-.201.709m1.641-5.77 1.709-6.008m-1.709 6.008h-41.23m79.997 5.77h-40.408m40.408 0h40.409m-40.409 0-1.49 3.49-.293.689-.583 1.365m-38.042-5.544-.994 3.49-.196.689-.194.684-.194.681m1.578-5.544h-40.41m73.986 16.007h-38.132m38.132 0-2.11 4.942m2.11-4.942h38.132m-38.132 0 .54-1.264.819-1.921.831-1.946m-40.322 5.131.18-.631 1.095-3.848.186-.652m-1.461 5.131-1.406 4.942m1.406-4.942h-38.131m74.153 4.942h-37.428m37.428 0h37.428m-37.428 0-2.033 4.763m-35.395-4.763-.514 1.807-.169.597-.17.594-.502 1.765m1.355-4.763h-37.428m68.97 13.791h-35.465m35.465 0-1.376 3.224-.45 1.057m1.826-4.281h35.467m-35.467 0 .703-1.645.235-.552.238-.556.717-1.681m-37.358 4.434-.155.543-.307 1.079-.305 1.07-.451 1.589m1.218-4.281.625-2.197.157-.556.319-1.118.16-.563m-1.261 4.434h-35.467m69.106 4.281h-34.857m34.857 0-1.548 3.627-.218.509m1.766-4.136h34.857m-69.714 0-.15.524-.149.523-.148.52-.147.518-.439 1.542-.145.509m1.178-4.136h-34.858M624.396 70.269h-95.605m95.605 0 4.3 30.227m-4.3-30.227H720m-95.604 0-4.726-33.217M528.791 70.27l8.601 30.227m-8.601-30.227-9.451-33.217m9.451 33.217h-95.605m195.51 30.227h-91.304m91.304 0H720m-91.304 0 3.93 27.625m-95.234-27.625 7.861 27.625m-7.861-27.625h-91.304m193.465 76.307h-80.449m80.449 0 3.066 21.557m-3.066-21.557H720m-80.447 0-3.321-23.336m-77.128 23.336 6.134 21.557m-6.134-21.557-6.64-23.336m6.64 23.336h-80.447m163.962 21.557h-77.381m77.381 0H720m-77.381 0 2.842 19.973m-80.223-19.973 5.684 19.973m-5.684-19.973h-77.38m162.703 55.821h-69.439m69.439 0 2.297 16.145m-2.297-16.145H720m-69.439 0-2.46-17.289m-66.979 17.289 4.594 16.145m-4.594-16.145-4.919-17.289m4.919 17.289h-69.439m141.175 16.145h-67.142m67.142 0H720m-67.142 0 2.15 15.111m-69.292-15.111 4.299 15.111m-4.299-15.111h-67.142m140.345 42.605h-61.081m61.081 0 1.785 12.542m-1.785-12.542H720m-61.081 0-1.895-13.321m-59.186 13.321 3.569 12.542m-3.569-12.542-3.79-13.321m3.79 13.321h-61.08m123.946 12.542h-59.297m59.297 0H720m-59.296 0 1.683 11.83m-60.98-11.83 3.367 11.83m-3.367-11.83h-59.296m123.371 33.584h-54.518m54.518 0 1.426 10.023m-1.426-10.023H720m-54.518 0-1.505-10.577m-53.013 10.577 2.851 10.023m-2.851-10.023-3.01-10.577m3.01 10.577h-54.519m110.463 10.023h-53.093m53.093 0H720m-53.092 0 1.353 9.512m-54.446-9.512 2.707 9.512m-2.707-9.512h-53.092m110.048 27.153h-49.23m49.23 0 1.166 8.193m-1.166-8.193H720m-49.229 0-1.224-8.601m-48.006 8.601 2.332 8.193m-2.332-8.193-2.447-8.601m2.447 8.601h-49.229m99.625 8.193h-48.064m48.064 0H720m-48.063 0 1.111 7.815m-49.175-7.815 2.224 7.815m-2.224-7.815h-48.064m99.316 22.408h-44.876m44.876 0 .97 6.822m-.97-6.822H720m-44.875 0-1.015-7.132m-43.861 7.132 1.703 5.985.238.837m-1.941-6.822-2.03-7.132m2.03 7.132h-44.876m90.722 6.822.118.832.812 5.702m-.93-6.534H632.19m43.905 0H720m-87.81 0 .707 2.483.232.819.233.814.687 2.418m-1.859-6.534h-43.905m90.486 18.805h-41.23m41.23 0 .82 5.77m-.82-5.77H720m-41.229 0-.317-2.224-.107-.749-.106-.753-.216-1.517-.11-.765m-40.374 6.008 1.237 4.349.405 1.421m-1.642-5.77-1.709-6.008m1.709 6.008h-41.23m83.28 5.77h-40.408m40.408 0H720m-40.409 0 .789 5.544m-41.197-5.544.992 3.49.197.689.194.684.194.681m-1.577-5.544h-40.409m83.095 16.007h-38.131m38.131 0 .703 4.942m-.703-4.942H720m-38.131 0-.73-5.131m-37.401 5.131-.18-.631-1.095-3.848-.186-.652m1.461 5.131 1.406 4.942m-1.406-4.942h-38.132m76.966 4.942h-37.428m37.428 0H720m-37.428 0 .677 4.763m-38.105-4.763.514 1.807.169.597.17.594.502 1.765m-1.355-4.763h-37.428m76.817 13.791h-35.466m35.466 0 .61 4.281m-.61-4.281H720m-35.467 0-.63-4.434m-34.836 4.434.155.543.308 1.079.152.537.303 1.065.15.53.151.527m-1.219-4.281-.625-2.197-.157-.556-.319-1.118-.16-.563m1.261 4.434h-35.466m71.542 4.281.074.524.075.523.074.52.365 2.569m-.588-4.136h-34.857m34.857 0H720m-69.714 0h-34.858m34.858 0 .298 1.047.148.52.147.518.438 1.542.146.509M241.977 70.268h-95.604m95.604 0 21.503 30.228m-21.503-30.227h95.604m-95.604 0-23.629-33.217M146.373 70.27l25.803 30.227M146.373 70.27l-28.354-33.217m28.354 33.217H50.768m212.712 30.227h-91.304m91.304 0h91.304m-91.304 0 19.651 27.625m-110.955-27.625 23.582 27.625m-23.582-27.625H80.872m236.889 76.307h-80.448m80.448 0 15.335 21.557m-15.335-21.557h80.448m-80.448 0-16.6-23.336m-63.848 23.336 18.402 21.557m-18.402-21.557-19.92-23.336m19.92 23.336h-80.447m176.23 21.557h-77.381m77.381 0h77.381m-77.381 0 14.208 19.973m-91.589-19.973 17.05 19.973m-17.05-19.973h-77.381m194.47 55.821h-69.439m69.439 0 11.486 16.145m-11.486-16.145h69.44m-69.44 0-12.298-17.289m-57.141 17.289 13.782 16.145m-13.782-16.145-14.758-17.289m14.758 17.289h-69.439m150.364 16.145h-67.143m67.143 0h67.142m-67.142 0 10.749 15.111m-77.892-15.111 12.899 15.111m-12.899-15.111h-67.142m164.591 42.605h-61.08m61.08 0 8.922 12.541m-8.922-12.541h61.081m-61.081 0-9.475-13.321m-51.605 13.321 10.706 12.541m-10.706-12.541-11.371-13.321m11.371 13.321h-61.081m131.083 12.541h-59.296m59.296 0h59.297m-59.297 0 8.416 11.831m-67.712-11.831 10.099 11.831m-10.099-11.831h-59.296m142.483 33.585H392.89m54.519 0 7.13 10.023m-7.13-10.023h54.518m-54.518 0-7.524-10.577m-46.995 10.577 8.556 10.023m-8.556-10.023-9.029-10.577m9.029 10.577h-54.519m116.168 10.023h-53.093m53.093 0h53.092m-53.092 0 6.766 9.512m-59.859-9.512 8.12 9.512m-8.12-9.512h-53.092m125.5 27.153h-49.229m49.229 0 5.828 8.193m-5.828-8.193h49.229m-49.229 0-6.119-8.601m-43.11 8.601 6.994 8.193m-6.994-8.193-7.343-8.601m7.343 8.601h-49.229m104.286 8.193h-48.063m48.063 0h48.064m-48.064 0 5.559 7.815m-53.622-7.815 6.671 7.815m-6.671-7.815h-48.063m112.066 22.408-.622-.875-.625-.878-3.826-5.379m5.073 7.132h-44.876m44.876 0 4.853 6.822m-4.853-6.822h44.875m-89.751 0 5.824 6.822m-5.824-6.822-6.087-7.132m6.087 7.132H405.87m94.605 6.822H456.57m43.905 0h43.905m-43.905 0 4.648 6.534m-48.553-6.534 5.578 6.534m-5.578-6.534h-43.905m101.188 18.805h-41.23m41.23 0 4.104 5.77m-4.104-5.77h41.229m-41.229 0-4.274-6.008m-36.956 6.008 3.102 3.633 1.823 2.137m-4.925-5.77-5.129-6.008m5.129 6.008h-41.23m86.564 5.77h-40.409m40.409 0h40.408m-40.408 0 3.458 4.863.485.681m-44.352-5.544 4.732 5.544m-4.732-5.544h-40.409m92.204 16.007h-38.131m38.131 0 .891 1.253 2.625 3.689m-3.516-4.942h38.131m-38.131 0-.899-1.264-1.826-2.566-.925-1.301m-34.481 5.131 4.219 4.942m-4.219-4.942-1.623-1.902-1.095-1.283-1.662-1.946m4.38 5.131h-38.131m79.778 4.942h-37.428m37.428 0h37.429m-37.429 0 2.553 3.589.836 1.174m-40.817-4.763 1.542 1.807 1.017 1.191 1.507 1.765m-4.066-4.763h-37.428m84.666 13.791h-35.467m35.467 0 1.916 2.692 1.129 1.589m-3.045-4.281h35.466m-35.466 0-3.154-4.434m-32.313 4.434 2.754 3.224.451.53.45.527m-3.655-4.281-1.875-2.197-1.909-2.237m3.784 4.434h-35.465m73.977 4.281h-34.857m34.857 0 1.484 2.085.732 1.03.364.512.362.509m-2.942-4.136h34.857m-69.714 0H476m34.857 0 3.531 4.136M23.573 198.36h77.38m-77.38 0 25.574 19.973M23.573 198.36H.388m23.185 0L.388 180.253m94.66 73.928H25.609m69.439 0 20.672 16.145m-20.672-16.145h69.439m-69.439 0-22.137-17.289m-47.302 17.289 22.97 16.145m-22.97-16.145L1.012 236.892m24.597 17.289H.387m115.333 16.145H48.578m67.142 0h67.143m-67.143 0 19.35 15.111m-86.492-15.111 21.5 15.111m-21.5-15.111H.388m169.886 42.605h-61.081m61.081 0 16.059 12.541m-16.059-12.541h61.081m-61.081 0-17.057-13.321m-44.024 13.321 17.843 12.541m-17.843-12.541L90.242 299.61m18.951 13.321H48.112m138.221 12.541h-59.297m59.297 0h59.296m-59.296 0 15.148 11.831m-74.445-11.831 16.832 11.831m-16.832-11.831H67.74m161.595 33.585h-54.518m54.518 0 12.834 10.023m-12.834-10.023h54.518m-54.518 0-13.543-10.577m-40.975 10.577 14.26 10.023m-14.26-10.023-15.048-10.577m15.048 10.577h-54.519m121.871 10.023h-53.092m53.092 0h53.092m-53.092 0 12.18 9.512m-65.272-9.512 13.534 9.512m-13.534-9.512h-53.092m140.952 27.153h-49.229m49.229 0 10.491 8.193m-10.491-8.193h49.229m-49.229 0-11.013-8.601m-38.216 8.601 11.657 8.193m-11.657-8.193-12.237-8.601m12.237 8.601h-49.229m108.949 8.193h-48.063m48.063 0h48.064m-48.064 0 10.007 7.815m-58.07-7.815 11.118 7.815m-11.118-7.815h-48.064m124.818 22.408h-44.875m44.875 0 8.737 6.822m-8.737-6.822h44.876m-44.876 0-9.131-7.132m-35.744 7.132 9.707 6.822m-9.707-6.822-10.146-7.132m10.146 7.132h-44.876m98.488 6.822h-43.905m43.905 0h43.904m-43.904 0 8.366 6.534m-52.271-6.534 9.296 6.534m-9.296-6.534h-43.905m111.889 18.805h-41.229m41.229 0 7.387 5.77m-7.387-5.77h41.229m-41.229 0-7.694-6.008m-33.535 6.008 8.207 5.77m-8.207-5.77-8.55-6.008m8.55 6.008h-41.231m89.847 5.77h-40.409m40.409 0h40.409m-40.409 0 7.099 5.544m-47.508-5.544 7.888 5.544m-7.888-5.544h-40.409m101.314 16.007h-38.131m38.131 0 6.328 4.942m-6.328-4.942h38.131m-38.131 0-1.62-1.264-.814-.638-4.137-3.229m-31.56 5.131 7.031 4.942m-7.031-4.942-7.301-5.131m7.301 5.131h-38.131m82.59 4.942h-37.428m37.428 0h37.428m-37.428 0 6.099 4.763m-43.527-4.763 6.777 4.763m-6.777-4.763H308.29m92.514 13.791h-35.466m35.466 0 5.482 4.281m-5.482-4.281h35.466m-35.466 0-5.677-4.434m-29.789 4.434 4.588 3.224.752.53.751.527m-6.091-4.281-6.308-4.434m6.308 4.434h-35.466m76.414 4.281h-34.857m34.857 0 4.643 3.627.653.509m-5.296-4.136h34.857m-69.714 0h-34.858m34.858 0 5.884 4.136M11.262 359.057 29.8 369.08m-18.538-10.023H65.78m-54.518 0-10.875-5.88m10.875 5.88H.387M29.8 369.08h53.093m-53.093 0 17.593 9.512M29.8 369.08H.387m79.633 27.153H30.79m49.23 0 15.155 8.193m-15.155-8.193h49.229m-49.229 0-15.908-8.601m-33.322 8.601 16.32 8.193m-16.32-8.193-17.13-8.601m17.13 8.601H.387m94.788 8.193H47.11m48.064 0h48.063m-48.063 0 14.453 7.815m-62.517-7.815 15.565 7.815m-15.565-7.815H.387m136.23 22.408H91.741m44.876 0 12.619 6.822m-12.619-6.822h44.875m-44.875 0-13.19-7.132m-31.686 7.132 13.59 6.822m-13.59-6.822-14.204-7.132m14.204 7.132H46.865m102.371 6.822h-43.905m43.905 0h43.905m-43.905 0 12.085 6.534m-55.99-6.534 13.014 6.534m-13.014-6.534H61.426m122.591 18.805h-41.229m41.229 0 10.67 5.77m-10.67-5.77h41.229m-41.229 0-11.113-6.008m-30.116 6.008 11.49 5.77m-11.49-5.77-11.968-6.008m11.968 6.008h-41.231m93.13 5.77h-40.409m40.409 0h40.409m-40.409 0 10.254 5.544m-50.663-5.544 11.043 5.544m-11.043-5.544H113.87m110.423 16.007h-38.132m38.132 0 9.14 4.942m-9.14-4.942h38.131m-38.131 0-9.491-5.131m-28.641 5.131 9.844 4.942m-9.844-4.942-10.22-5.131m10.22 5.131H148.03m85.403 4.942h-37.428m37.428 0h37.429m-37.429 0 8.81 4.763m-46.238-4.763 9.488 4.763m-9.488-4.763h-37.428m100.362 13.791h-35.466m35.466 0 7.918 4.281m-7.918-4.281h35.466m-35.466 0-8.199-4.434m-27.267 4.434 8.527 4.281m-8.527-4.281-8.831-4.434m8.831 4.434h-35.467m78.851 4.281H232m34.857 0 7.65 4.136m-7.65-4.136h34.857m-69.714 0h-34.858m34.858 0 8.239 4.136m-221.14-48.927 13.954 5.77m-13.954-5.77h41.23m-41.23 0-14.533-6.008m14.533 6.008H.387m32.666 5.77H73.46m-40.408 0 13.408 5.544m-13.408-5.544H.387m71.38 16.007h-38.13m38.13 0 11.954 4.942m-11.953-4.942h38.131m-38.131 0-12.411-5.131m-25.72 5.131 12.656 4.942m-12.657-4.942-13.14-5.131m13.14 5.131H.387m83.334 4.942H46.293m37.428 0h37.428m-37.428 0 11.52 4.763m-48.948-4.763 12.198 4.763m-12.198-4.763H8.865m108.209 13.791H81.608m35.466 0 10.354 4.281m-10.354-4.281h35.467m-35.467 0-10.722-4.434m-24.744 4.434 10.963 4.281m-10.963-4.281-11.353-4.434m11.353 4.434H46.14m81.287 4.281H92.571m34.857 0 10.004 4.136m-10.004-4.136h34.857m-69.714 0H57.714m34.857 0 10.593 4.136m-32.909-12.851-11.764-4.594m11.764 4.594H34.158m36.097 0h36.097m-60.21 4.434 11.572 4.281m-11.573-4.281-11.983-4.434m11.983 4.434H10.676m47.038 4.281H22.857m34.857 0 11.181 4.136m34.269 0h34.268m-34.268 0H68.895m34.269 0 10.241 3.999m-79.247-16.85-12.418-4.594m12.418 4.594H.388m10.288 4.434 12.18 4.281m-12.18-4.281L.387 489.355m10.289 3.616H.387m22.47 4.281 11.77 4.136m-11.77-4.136H.387m68.508 4.136H34.627m34.268 0 10.81 3.999m-45.078-3.999 11.379 3.999m-11.38-3.999H.388m58.104-17.445H21.74m36.75 0h36.751M8.865 479.18l12.875 4.763M8.865 479.18l-8.478-3.135m8.478 3.135H.387m21.353 4.763H.387m94.854 0h36.751m-36.75 0 11.11 4.594m0 0h36.097m-121.954-19.43-13.654-5.332m13.654 5.332h38.862m-38.862 0H.387m-.116 5.131h.116m6.454-10.463h39.62m-39.62 0-6.454-2.52m6.454 2.52H.387m46.074 0h39.62m-39.62 0 12.896 5.332m0 0h38.861m116.424 19.43-9.149-4.594m9.149 4.594h-36.096m36.096 0h36.098m-62.734 4.434 9.136 4.281m-9.136-4.281-9.46-4.434m9.46 4.434h-35.465m44.601 4.281h-34.857m34.857 0 8.828 4.136m34.269 0H205.97m34.269 0 7.965 3.999m-7.965-3.999h34.268m-95.961-12.851-9.804-4.594m9.804 4.594h-36.097m10.092 4.434 9.744 4.281m-9.744-4.281-10.092-4.434m19.836 8.715 9.416 4.136m34.269 0h-34.269m34.269 0 8.534 3.999m-72.055-16.85-10.457-4.594m5.44 17.445h34.269m-34.269 0 9.673 3.999m24.596-3.999 9.104 3.999m24.688-21.444h-36.751m36.751 0h36.75m-83.666-4.763 10.165 4.763m-10.165-4.763-10.547-4.942m10.547 4.942h-37.428m47.593 4.763h-36.75m110.251 0h36.751m-36.751 0 8.497 4.594m-118.748-4.594-10.843-4.763m129.591 9.357h36.097M148.03 474.238l-10.951-5.131m10.951 5.131h-38.131m11.25 4.942-11.25-4.942m0 0-11.681-5.131m77.723 0-10.62-5.332m10.62 5.332h-38.862m38.862 0h38.861m-77.723 0-11.378-5.332m11.378 5.332H98.218m0 0-12.137-5.332m79.24 0h-39.62m39.62 0h39.62m-91.071-5.544 11.831 5.544m-11.831-5.544-12.313-5.77m12.313 5.77H73.461m52.24 5.544h-39.62m118.86 0h39.62m-39.62 0 9.861 5.332m-128.72-5.332-12.62-5.544m141.34 10.876h38.861m-152.106-16.646-12.822-6.008m12.822 6.008H60.328m13.133 5.77-13.133-5.77m0 0-13.677-6.008m84.169 0-12.475-6.263m12.475 6.263H88.735m42.085 0h42.084m-84.17 0L75.37 440.19m13.365 6.263H46.65m0 0-14.257-6.263m14.257 6.263H4.566m0 0H.387m4.18 0-4.18-1.728m117.958-4.535H75.37m42.975 0h42.976m-99.895-6.534 13.944 6.534m-13.944-6.534-14.56-6.822m14.56 6.822H17.52m57.849 6.534H32.394m128.927 0h42.975m-42.975 0 11.583 6.263m-140.51-6.263-14.873-6.534m14.873 6.534H.388m172.517 6.263h42.084M46.865 426.834l-15.218-7.132m15.218 7.132H1.99m15.531 6.822-15.53-6.822m15.53 6.822H.387m-.224 6.534h.224m1.603-13.356-1.603-.705m1.603.705H.387m77.15-7.132-14.861-7.461m14.861 7.461h-45.89m45.89 0h45.89m-91.78 0-15.923-7.461m15.923 7.461H.387M0 425.959l.387.17m62.289-13.888H15.724m46.952 0h46.952m-93.904 0H.387m15.337 0L.387 405.054m109.241 7.187h46.951m-46.951 0 13.799 7.461m0 0h45.89m-155.658-32.07h50.453m-50.453 0L.387 380.969m13.272 6.663H.387m-.365 8.601h.365m63.725-8.601h50.453m-50.453 0-16.719-9.04M.241 380.895l.146.074M359.03 488.537l-6.535-4.594m6.535 4.594h-36.096m36.096 0h36.097m-65.255 4.434 6.699 4.281m-6.699-4.281-6.938-4.434m6.938 4.434h-35.467m42.166 4.281h-34.857m34.857 0 6.473 4.136m34.269 0h-34.269m34.269 0 2.157 1.515 3.533 2.484m-5.69-3.999h34.269m-88.648-12.851-7.19-4.594m7.19 4.594h-36.097m7.568 4.434 7.309 4.281m-7.309-4.281-7.568-4.434m14.877 8.715 7.062 4.136m34.268 0h-34.268m34.268 0 6.259 3.999m-62.466-16.85-7.843-4.594m-4.487 17.445 7.397 3.999m-7.397-3.999h34.269m0 0 .866.508 1.722 1.007 4.239 2.484m36.892-21.444h-36.751m36.751 0h36.75m-80.955-4.763 7.454 4.763m-7.454-4.763-7.734-4.942m7.734 4.942h-37.428m44.882 4.763h-36.75m110.251 0h36.751m-36.751 0 5.882 4.594m-116.133-4.594-8.132-4.763m124.265 9.357h36.098m-130.669-14.299-8.031-5.131m8.031 5.131h-38.132m8.438 4.942-1.038-.607-7.4-4.335m0 0-8.761-5.131m77.723 0-.932-.656-6.653-4.676m7.585 5.332h-38.861m38.861 0h38.861m-77.722 0-8.344-5.332m8.344 5.332h-38.862m0 0-9.102-5.332m79.24 0h-39.62m39.62 0h39.62m-87.917-5.544 8.677 5.544m-8.677-5.544-9.029-5.77m9.029 5.77h-40.408m49.085 5.544h-39.62m118.86 0h39.62m-39.62 0 6.826 5.332m-125.686-5.332-9.465-5.544m135.151 10.876h38.862m-142.634-16.646-9.402-6.008m9.402 6.008h-41.229m9.85 5.77-9.85-5.77m0 0-10.258-6.008m84.168 0-8.909-6.263m8.909 6.263h-42.083m42.083 0h42.085m-84.168 0-9.802-6.263m9.802 6.263h-42.085m0 0-10.692-6.263m85.951 0h-42.976m42.976 0h42.975m-96.176-6.534 10.225 6.534m-10.225-6.534-10.678-6.822m10.678 6.822h-43.905m54.13 6.534h-42.975m128.926 0h42.975m-42.975 0 8.019 6.263m-136.945-6.263-11.155-6.534m148.1 12.797h42.085m-156.958-19.619-11.16-7.132m11.16 7.132h-44.876m11.649 6.822-11.649-6.822m0 0-12.175-7.132m91.781 0-10.615-7.461m10.615 7.461h-45.89m45.89 0h45.89m-91.78 0-11.677-7.461m11.677 7.461h-45.891m0 0-12.738-7.461m93.904 0h-46.952m46.952 0h46.952m-106.134-7.815 12.23 7.815m-12.23-7.815-12.822-8.193m12.822 8.193h-48.063m60.293 7.815h-46.952m140.856 0h46.951m-46.951 0 9.553 7.461m-150.409-7.461-13.341-7.815m163.75 15.276h45.89m-174.399-23.469-13.461-8.601m13.461 8.601h-49.23m13.989 8.193-13.989-8.193m0 0-14.684-8.601m100.906 0-12.86-9.04m12.86 9.04h-50.453m50.453 0h50.453m-100.906 0-14.147-9.04m14.147 9.04h-50.453m0 0-15.433-9.04m103.479 0h-51.74m51.74 0h51.738m-118.364-9.512 14.886 9.512m-14.886-9.512-15.687-10.023m15.687 10.023H82.893m67.978 9.512H99.132m155.217 0h51.74m-51.74 0 11.575 9.04m-166.791-9.04-16.24-9.512m16.24 9.512h-51.74m218.531 9.04h50.453m-196.079-28.575-16.552-10.577m16.552 10.577H65.78m17.113 10.023L65.78 359.057m-18.387 19.535H.387m65.393-19.535L47.723 348.48m112.046 0-15.901-11.177m15.901 11.177h-56.023m56.023 0h56.023m-112.046 0-17.492-11.177m17.492 11.177H47.723m0 0-19.082-11.177m19.082 11.177H.387m143.481-11.177H86.254m57.614 0h57.613m-133.74-11.831 18.513 11.831M67.74 325.472l-19.628-12.541m19.628 12.541H8.444m77.81 11.831H28.641m172.84 0h57.613m-57.613 0 14.311 11.177m-187.15-11.177L8.443 325.472m20.197 11.831H.387m215.405 11.177h56.024M48.112 312.931 27.266 299.61m20.846 13.321H.387m8.057 12.541H.387m8.057 0-8.057-4.718m89.855-21.144-20.165-14.173m20.165 14.173H27.266m62.976 0h62.975m-125.951 0-22.18-14.173m22.18 14.173H.387m69.69-14.173H5.085m64.992 0h64.993m-129.985 0-4.698-3.002m4.698 3.002H.387m134.683 0h64.992m-64.992 0 18.147 14.173m0 0h62.976M1.012 236.892H72.91m-71.9 0H.389m.624 0-.624-.439m72.523.439h71.898m-71.898 0-23.764-18.559m454.271 270.204-1.454-1.703-.489-.573-1.978-2.318m3.921 4.594h-36.097m36.097 0h36.097m-67.778 4.434 3.211 3.224 1.052 1.057m-4.263-4.281-3.855-3.871-.561-.563m4.416 4.434H436.27m39.73 4.281h-34.857m34.857 0 4.119 4.136m34.269 0h-34.269m34.269 0 1.294 1.515 2.12 2.484m-3.414-3.999h34.268m-81.335-12.851-1.128-1.133-3.447-3.461m4.575 4.594h-36.096m5.045 4.434 4.873 4.281m-4.873-4.281-5.045-4.434m9.918 8.715 3.546 3.115 1.162 1.021m34.268 0h-34.268m34.268 0 3.983 3.999m-52.877-16.85-5.229-4.594m-14.414 17.445.649.508 4.472 3.491m-5.121-3.999h34.269m0 0 1.725 1.515 2.826 2.484m49.095-21.444h-36.751m36.751 0h36.751m-78.245-4.763 4.743 4.763m-4.743-4.763-4.922-4.942m4.922 4.942h-37.429m42.172 4.763h-36.75m110.252 0h36.75m-36.75 0 3.267 4.594m-113.519-4.594-5.422-4.763m118.941 9.357h36.097m-122.531-14.299-3.171-3.185-.644-.645-1.295-1.301m5.11 5.131h-38.132m5.625 4.942-5.625-4.942m0 0-5.84-5.131m77.723 0-4.552-5.332m4.552 5.332h-38.861m38.861 0h38.861m-77.722 0-5.31-5.332m5.31 5.332h-38.862m0 0-6.068-5.332m79.239 0h-39.619m39.619 0h39.62m-84.761-5.544 3.477 3.49.684.689 1.361 1.365m-5.522-5.544-5.746-5.77m5.746 5.77h-40.408m45.93 5.544h-39.62m118.859 0h39.62m-39.62 0 3.793 5.332m-122.652-5.332-6.31-5.544m128.962 10.876h38.862m-133.162-16.646-5.984-6.008m5.984 6.008h-41.229m6.567 5.77-6.567-5.77m0 0-6.838-6.008m84.168 0-2.645-3.098-.67-.786-2.031-2.379m5.346 6.263h-42.085m42.085 0h42.085m-84.17 0-6.236-6.263m6.236 6.263h-42.083m0 0-7.129-6.263m85.951 0h-42.975m42.975 0h42.975m-92.458-6.534 6.508 6.534m-6.508-6.534-6.795-6.822m6.795 6.822H368.76m50.413 6.534h-42.976m128.926 0h42.976m-42.976 0 1.132 1.59 3.324 4.673m-133.382-6.263-7.437-6.534m140.819 12.797h42.083M405.87 426.834l-7.101-7.132m7.101 7.132h-44.875m7.765 6.822-7.765-6.822m0 0-8.117-7.132m91.781 0-6.369-7.461m6.369 7.461h-45.89m45.89 0h45.89m-91.78 0-7.431-7.461m7.431 7.461h-45.891m0 0-8.492-7.461m93.904 0h-46.952m46.952 0h46.951m-101.685-7.815 7.782 7.815m-7.782-7.815-8.16-8.193m8.16 8.193h-48.064m55.846 7.815h-46.952m140.855 0h46.952m-46.952 0 5.308 7.461m-146.163-7.461-8.894-7.815m155.057 15.276h45.89m-161.043-23.469-8.566-8.601m8.566 8.601h-49.23m9.326 8.193-9.326-8.193m0 0-9.789-8.601m100.905 0-7.716-9.04m7.716 9.04H366.83m50.452 0h50.453m-100.905 0-9.003-9.04m9.003 9.04h-50.453m0 0-10.288-9.04m103.477 0h-51.739m51.739 0h51.739m-112.951-9.512 9.473 9.512m-9.473-9.512-9.983-10.023m9.983 10.023h-53.093m62.566 9.512h-51.738m155.216 0h51.739m-51.739 0 6.43 9.04m-161.646-9.04-10.828-9.512m172.474 18.552h50.453m-179.817-28.575-10.533-10.577m10.533 10.577h-54.518m11.408 10.023-11.408-10.023m0 0-12.037-10.577m112.045 0-9.54-11.177m9.54 11.177h-56.023m56.023 0h56.024m-112.047 0-11.131-11.177m11.131 11.177h-56.022m0 0-12.722-11.177m115.227 0h-57.614m57.614 0h57.613m-127.008-11.831 11.781 11.831m-11.781-11.831-12.491-12.541m12.491 12.541h-59.297m71.078 11.831h-57.613m172.84 0h57.613m-57.613 0 7.951 11.177m-180.791-11.177-13.465-11.831m194.256 23.008h56.022m-203.472-35.549-13.266-13.321m13.266 13.321h-61.08m14.274 12.541-14.274-12.541m0 0-15.162-13.321m125.952 0-12.099-14.173m12.099 14.173h-62.976m62.976 0h62.976m-125.952 0-14.115-14.173m14.115 14.173h-62.976m0 0-16.131-14.173m129.984 0h-64.992m64.992 0h64.993m-145.034-15.111 15.049 15.111m-15.049-15.111-16.079-16.145m16.079 16.145h-67.142m82.191 15.111h-64.992m194.977 0h64.992m-64.992 0 10.082 14.173m-205.059-14.173-17.199-15.111m222.258 29.284h62.976m-234.171-45.429-17.218-17.289m17.218 17.289h-69.439m18.376 16.145-18.376-16.145m0 0-19.678-17.289m143.798 0-15.842-18.559m15.842 18.559h-71.899m71.899 0h71.899m-143.798 0-18.482-18.559m18.482 18.559h-71.899m0 0-21.123-18.559m149.079 0h-74.539m74.539 0h74.539m-168.97-19.973 19.892 19.973m-19.892-19.973-21.468-21.557m21.468 21.557h-77.381m97.273 19.973h-74.54m223.618 0h74.54m-74.54 0 13.202 18.559m-236.82-18.559-22.733-19.973m22.733 19.973H49.147m311.359 18.559h71.899m-275.539-60.089-23.241-23.336m23.241 23.336H76.418m24.535 21.557-24.535-21.557m-27.27 41.53H.387m76.03-41.53-26.56-23.336m26.56 23.336H.388m217.005-23.336-21.635-25.346m21.635 25.346h-83.768m83.768 0h83.768m-167.536 0-25.241-25.346m25.241 25.346H49.857m0 0L21.01 128.121m28.847 25.346H.387m195.371-25.346h-87.374m87.374 0h87.373m-202.26-27.625 27.513 27.625m-27.512-27.625L50.768 70.269m30.104 30.227H.388m107.996 27.625H21.01m262.121 0h87.374m-87.374 0 18.03 25.346m-280.15-25.346H.387m20.622 0L.388 110.002m300.773 43.465h83.768M50.768 70.268l-33.08-33.216m33.08 33.217H.388m117.631-33.217L86.716.381m31.303 36.671H17.689m100.33 0h100.329m-200.66 0L.388 19.68m17.3 17.372H.388M86.716.381h105.547m-105.547 0H.388m191.875 0H297.81m-105.547 0 26.085 36.671m0 0h100.331m329.127 451.485-.161-.565-.161-.568-.163-.57-.162-.573-.494-1.734-.166-.584m1.307 4.594h-36.097m36.097 0h36.097m-70.302 4.434 1.377 3.224.45 1.057m-1.827-4.281-1.175-2.753-.717-1.681m1.892 4.434h-35.466m37.293 4.281h-34.857m34.857 0 1.33 3.115.436 1.021m34.269 0 .144.508.571 2.007.423 1.484m-1.138-3.999h-34.269m34.269 0h34.268m-74.022-12.851-.241-.565-.243-.568-.243-.57-.245-.573-.988-2.318m1.96 4.594h-36.097m2.523 4.434 1.835 3.224.601 1.057m-2.436-4.281-2.523-4.434m4.959 8.715 1.188 2.085.877 1.542.289.509m34.269 0 .216.508.43 1.007.428 1 .211.497.422.987m-1.707-3.999h-34.269m-7.313-12.851-1.952-3.429-.662-1.165m-24.342 17.445 2.143 3.012.702.987m-2.845-3.999h34.269m0 0 1.995 3.507.282.492m61.297-21.444h-36.75m36.75 0h36.75m-75.533-4.763 2.033 4.763m-2.033-4.763-2.11-4.942m2.11 4.942h-37.428m39.461 4.763h-36.751m110.251 0H720m-36.751 0 .654 4.594m-110.905-4.594-2.71-4.763m113.615 9.357H720m-114.394-14.299-.54-1.264-.819-1.921-.831-1.946m2.19 5.131h-38.132m2.814 4.942-.347-.607-2.467-4.335m0 0-.358-.631-.361-.633-.362-.638-1.838-3.229m77.722 0-1.517-5.332m1.517 5.332h-38.861m38.861 0h38.862m-77.723 0-2.276-5.332m2.276 5.332h-38.861m0 0-2.265-3.98-.384-.674-.386-.678m79.24 0h-39.62m39.62 0h39.62m-81.606-5.544-.302-.709-.305-.712-.305-.716-1.551-3.633m2.463 5.77 1.195 2.799.295.691.293.689.583 1.365m-2.366-5.544h-40.409m42.775 5.544h-39.62m118.86 0H720m-39.62 0 .759 5.332m-119.619-5.332-3.155-5.544m122.774 10.876H720m-123.689-16.646-2.238-5.243-.326-.765m2.564 6.008h-41.229m3.283 5.77-.809-1.421-2.474-4.349m0 0-1.266-2.224-2.154-3.784m84.17 0-.883-3.098-.222-.786-.678-2.379m1.783 6.263h-42.085m42.085 0h42.083m-84.168 0-2.673-6.263m2.673 6.263h-42.085m0 0-3.563-6.263m85.95 0h-42.975m42.975 0h42.976m-88.74-6.534 2.789 6.534m-2.789-6.534-2.912-6.822m2.912 6.822H544.38m46.694 6.534h-42.975m128.926 0H720m-42.975 0 .226 1.59.445 3.132.219 1.541m-129.816-6.263-3.719-6.534m133.535 12.797H720m-134.627-19.619-2.27-5.319-.774-1.813m3.044 7.132h-44.876m3.883 6.822-3.883-6.822m0 0-2.006-3.526-2.052-3.606m91.78 0-2.122-7.461m2.122 7.461h-45.89m45.89 0h45.891m-91.781 0-3.184-7.461m3.184 7.461h-45.89m0 0-4.246-7.461m93.904 0h-46.952m46.952 0h46.951m-97.239-7.815.849 1.988 2.487 5.827m-3.336-7.815-3.497-8.193m3.497 8.193h-48.063m51.399 7.815h-46.952m140.855 0H720m-46.952 0 1.062 7.461m-141.917-7.461-4.447-7.815m146.364 15.276H720m-147.688-23.469-3.671-8.601m3.671 8.601h-49.229m4.663 8.193-4.663-8.193m0 0-4.895-8.601m100.906 0-2.572-9.04m2.572 9.04h-50.453m50.453 0h50.453m-100.906 0-3.858-9.04m3.858 9.04h-50.453m0 0-5.144-9.04m103.478 0h-51.739m51.739 0h51.739m-107.538-9.512 4.06 9.512m-4.06-9.512-4.278-10.023m4.278 10.023h-53.092m57.152 9.512h-51.739m155.217 0H720m-51.739 0 1.129 7.934.157 1.106m-156.503-9.04-5.413-9.512m161.916 18.552H720m-163.555-28.575-4.514-10.577m4.514 10.577h-54.518m5.704 10.023-4.249-7.468-1.455-2.555m0 0-6.02-10.577m112.047 0-3.18-11.177m3.18 11.177h-56.023m56.023 0h56.023m-112.046 0-4.771-11.177m4.771 11.177h-56.024m0 0-6.36-11.177m115.227 0H547.16m57.614 0h57.613m-120.276-11.83 5.049 11.83m-5.049-11.83-5.353-12.542m5.353 12.542-59.296-.001m64.345 11.831h-57.613m172.84 0H720m-57.613 0 1.59 11.177m-174.43-11.177-6.732-11.831m181.162 23.008H720m-183.242-35.549-5.685-13.321m5.685 13.321h-61.081m7.138 12.541-7.138-12.541m0 0-7.58-13.321m125.951 0-4.033-14.173m4.033 14.173h-62.975m62.975 0h62.976m-125.951 0-6.05-14.173m6.05 14.173h-62.976m0 0-8.066-14.173m129.984 0h-64.992m64.992 0h64.993m-136.434-15.111 6.449 15.111m-6.449-15.111-6.891-16.145m6.891 16.145h-67.142m73.591 15.111h-64.992m194.977 0H720m-64.992 0 2.016 14.173m-196.993-14.173-8.599-15.111m205.592 29.284H720m-208.317-45.429-7.379-17.289m7.379 17.289h-69.439m9.188 16.145-9.188-16.145m0 0-9.839-17.289m143.798 0-5.281-18.559m5.281 18.559h-71.899m71.899 0h71.898m-143.797 0-7.921-18.559m7.921 18.559h-71.899m0 0-10.561-18.559m149.078 0h-74.539m74.539 0h74.539M487.858 198.36l8.525 19.973m-8.525-19.973-9.201-21.557m9.201 21.557h-77.381m85.906 19.973h-74.539m223.617 0H720m-74.539 0 2.64 18.559m-226.257-18.559-11.367-19.973m237.624 38.532H720m-241.343-60.089-9.961-23.336m9.961 23.336h-80.448m12.268 21.557-12.268-21.557m0 0-13.28-23.336m167.535 0-7.211-25.346m7.211 25.346h-83.768m83.768 0h83.768m-167.536 0-10.817-25.346m10.817 25.346h-83.767m0 0-14.424-25.346m174.748 0h-87.374m87.374 0h87.373m-186.538-27.625 11.791 27.625m-11.791-27.625-12.902-30.227m12.902 30.227h-91.304m103.095 27.625h-87.374m262.121 0H720m-87.374 0 3.606 25.346m-265.727-25.346-15.721-27.625m281.448 52.971H720M433.186 70.268l-14.177-33.216m14.177 33.217h-95.605m17.203 30.227-17.203-30.227m0 0-18.902-33.217m200.661 0L508.905.382m10.435 36.67H419.009m100.331 0h100.33m-200.661 0L403.358.381m15.651 36.671h-100.33m0 0L297.81.381m105.548 0h105.547m-105.547 0H297.81m211.095 0h105.547m0 0H720m-105.548 0 5.218 36.671m0 0H720m72.194 451.485.161-.565.161-.568.163-.57.162-.573.329-1.153.165-.581.166-.584m-1.307 4.594h-36.097m36.097 0h36.097m-72.825 4.434-.609 4.281m.609-4.281.631-4.434m-.631 4.434H720m34.857 4.281-.074.524-.075.523-.074.52-.366 2.569m.589-4.136H720m68.537 4.136-.144.508-.571 2.007-.423 1.484m1.138-3.999h-34.269m34.269 0h34.269m-66.709-12.851.081-.565.08-.568.082-.57.41-2.891m-.653 4.594H720m0 4.434v4.281m0-4.281v-4.434m0 8.715v4.136m34.268 0H720m34.268 0-.215 1.515-.072.501-.281 1.983m-33.7-16.85v-4.594m-34.269 17.445.215 1.515.072.501.071.499.071.497.07.495.07.492m-.569-3.999H720m0 0v3.999m73.501-21.444H756.75m36.751 0h36.75m-72.823-4.763.087-.607.086-.611.53-3.724m-.703 4.942-.678 4.763m.678-4.763H720m36.75 4.763H720m110.251 0h36.751m-36.751 0-.496 1.165-.247.577-.245.576-.246.573-.242.57-.243.568-.241.565M720 483.943v-4.763m108.291 9.357h36.097m-106.257-14.299.73-5.131m-.73 5.131H720m0 4.942v-4.942m0 0v-5.131m77.723 0 1.517-5.332m-1.517 5.332h-38.862m38.862 0h38.861m-77.723 0 .759-5.332m-.759 5.332H720m0 0v-5.332m79.24 0h-39.62m39.62 0h39.62m-78.452-5.544-.788 5.544m.788-5.544.821-5.77m-.821 5.77H720m39.62 5.544H720m118.86 0h39.62m-39.62 0-2.276 5.332M720 463.775v-5.544m116.584 10.876h38.861m-114.216-16.646.317-2.224.321-2.258.218-1.526m-.856 6.008H720m0 5.77v-5.77m0 0v-6.008m84.168 0 .883-3.098.222-.786.678-2.379m-1.783 6.263h-42.083m42.083 0h42.085m-84.168 0 .218-1.541.446-3.132.226-1.59m-.89 6.263H720m0 0v-6.263m85.951 0h-42.976m42.976 0h42.975m-85.021-6.534-.118.832-.812 5.702m.93-6.534.97-6.822m-.97 6.822H720m42.975 6.534H720m128.926 0h42.975m-42.975 0-2.673 6.263M720 440.19v-6.534m126.253 12.797h42.085m-123.463-19.619 1.015-7.132m-1.015 7.132H720m0 6.822v-6.822m0 0v-7.132m91.781 0 2.122-7.461m-2.122 7.461H765.89m45.891 0h45.89m-91.781 0 1.062-7.461m-1.062 7.461H720m0 0v-7.461m93.903 0h-46.951m46.951 0h46.952m-92.792-7.815-1.111 7.815m1.111-7.815 1.166-8.193m-1.166 8.193H720m46.952 7.815H720m140.855 0h46.952m-46.952 0-3.184 7.461M720 412.241v-7.815m137.671 15.276h45.89m-134.332-23.469 1.224-8.601m-1.224 8.601H720m0 8.193v-8.193m0 0v-8.601m100.906 0 2.572-9.04m-2.572 9.04h-50.453m50.453 0h50.452m-100.905 0 1.286-9.04m-1.286 9.04H720m0 0v-9.04m103.478 0h-51.739m51.739 0h51.739m-102.125-9.512-1.353 9.512m1.353-9.512 1.426-10.023m-1.426 10.023H720m51.739 9.512H720m155.217 0h51.739m-51.739 0-3.859 9.04M720 378.592v-9.512m151.358 18.552h50.454m-147.294-28.575 1.505-10.577m-1.505 10.577H720m0 10.023v-10.023m0 0V348.48m112.046 0 3.18-11.177m-3.18 11.177h-56.023m56.023 0h56.023m-112.046 0 1.59-11.177m-1.59 11.177H720m0 0v-11.177m115.226 0h-57.613m57.613 0h57.614m-113.544-11.83-1.683 11.83m1.683-11.83 1.785-12.542m-1.785 12.542H720m57.613 11.83H720m172.84 0h57.613m-57.613 0-4.771 11.177M720 337.303v-11.83m168.069 23.007h56.024m-163.012-35.549 1.895-13.321m-1.895 13.321H720m0 12.542v-12.542m0 0V299.61m125.952 0 4.032-14.173m-4.032 14.173h-62.976m62.976 0h62.975m-125.951 0 2.016-14.173m-2.016 14.173H720m0 0v-14.173m129.984 0h-64.992m64.992 0h64.993m-127.835-15.111-2.15 15.111m2.15-15.111 2.297-16.145m-2.297 16.145H720m64.992 15.111H720m194.977 0h64.992m-64.992 0-6.05 14.173M720 285.437v-15.111m188.927 29.284h62.976m-182.464-45.429 2.46-17.289m-2.46 17.289H720m0 16.145v-16.145m0 0v-17.289m143.797 0 5.281-18.559m-5.281 18.559h-71.898m71.898 0h71.899m-143.797 0 2.64-18.559m-2.64 18.559H720m0 0v-18.559m149.078 0h-74.539m74.539 0h74.539M797.381 198.36l-2.842 19.973m2.842-19.973 3.066-21.557m-3.066 21.557H720m74.539 19.973H720m223.617 0h74.543m-74.543 0-7.921 18.559M720 218.333V198.36m215.696 38.532h71.904m-207.153-60.089 3.321-23.336m-3.321 23.336H720m0 21.557v-21.557m0 0v-23.336m167.535 0 7.212-25.346m-7.212 25.346h-83.767m83.767 0h83.769m-167.536 0 3.606-25.346m-3.606 25.346H720m0 0v-25.346m174.747 0h-87.373m87.373 0h87.374m-170.817-27.625-3.93 27.625m3.93-27.625 4.3-30.227m-4.3 30.227H720m87.374 27.625H720m262.121 0h87.369m-87.369 0-10.817 25.346M720 128.121v-27.625m251.304 52.971h83.766M815.604 70.269l4.726-33.217m-4.726 33.217H720m0 30.227V70.269m0 0V37.052m200.66 0L931.095.382m-10.435 36.67H820.33m100.33 0h100.33m-200.66 0 5.218-36.67m-5.218 36.67H720m0 0V.382m105.548 0h105.547m-105.547 0H720m211.095 0h105.545m0 0h105.55m-105.55 0-15.65 36.67m0 0h100.33M936.582 488.537l1.943-2.276 1.978-2.318m-3.921 4.594h-36.097m36.097 0h36.096m-75.347 4.434-3.045 4.281m3.045-4.281 3.154-4.434m-3.154 4.434h-35.466m32.421 4.281h-34.857m34.857 0-2.216 3.115-.727 1.021m34.269 0h-34.269m34.269 0-1.294 1.515-2.12 2.484m3.414-3.999h34.269m-59.396-12.851 3.267-4.594m-3.267 4.594h-36.097m-2.523 4.434-2.436 4.281m2.436-4.281 2.523-4.434m-4.959 8.715-1.188 2.085-.877 1.542-.289.509m34.268 0h-34.268m34.268 0-2.142 3.012-.702.987m-24.111-16.85 1.952-3.429.662-1.165m-44.196 17.445-.216.508-.431 1.007-.638 1.497-.422.987m1.707-3.999h34.269m0 0-.289.508-.574 1.007-1.413 2.484m85.704-21.444h-36.751m36.751 0h36.751m-70.113-4.763-.431.605-.428.603-1.694 2.381-.836 1.174m3.389-4.763 2.624-3.689.892-1.253m-3.516 4.942h-37.429m34.04 4.763h-36.75m110.252 0H1014m-36.746 0-3.447 3.462-1.129 1.132m-105.676-4.594 2.71-4.763m102.966 9.357h36.102m-98.123-14.299.448-.631.451-.633 1.365-1.92.461-.646.925-1.301m-3.65 5.131h-38.131m-2.814 4.942.347-.607 2.467-4.335m0 0 .358-.631.361-.633.362-.638 1.838-3.229m77.723 0 4.551-5.332m-4.551 5.332h-38.861m38.861 0h38.861m-77.722 0 3.793-5.332m-3.793 5.332h-38.862m0 0 3.035-5.332m79.239 0H918.1m39.619 0h39.62m-75.296-5.544-3.943 5.544m3.943-5.544 4.104-5.769m-4.104 5.769h-40.408m36.465 5.544h-39.62m118.859 0h39.621m-39.621 0-5.31 5.332m-113.549-5.332 3.155-5.544m110.394 10.876h38.861m-104.743-16.645 4.274-6.009m-4.274 6.009-41.229-.001m-3.283 5.77.808-1.421 2.475-4.349m0 0 1.266-2.224 1.286-2.258.868-1.526m84.168 0 2.645-3.098 2.701-3.165m-5.346 6.263h-42.085m42.085 0h42.084m-84.169 0 4.456-6.263m-4.456 6.263h-42.083m0 0 3.563-6.263m85.951 0h-42.975m42.975 0h42.978m-81.306-6.534-4.647 6.534m4.647-6.534 4.854-6.822m-4.854 6.822H895.62m39.257 6.534h-42.976m128.929 0h42.97m-42.97 0-6.24 6.263m-122.689-6.263 3.719-6.534m118.97 12.797h42.08m-112.292-19.619 1.247-1.753 3.826-5.379m-5.073 7.132h-44.875m-3.883 6.822 3.883-6.822m0 0 .497-.875 1.509-2.651 2.052-3.606m91.78 0 6.369-7.461m-6.369 7.461h-45.89m45.89 0h45.889m-91.779 0 5.308-7.461m-5.308 7.461h-45.89m0 0 4.246-7.461m93.903 0h-46.951m46.951 0h46.95m-88.342-7.815-3.506 4.927-2.053 2.888m5.559-7.815 5.828-8.193m-5.828 8.193h-48.064m42.505 7.815h-46.952m140.853 0h46.95m-46.95 0-7.43 7.461m-133.423-7.461 4.447-7.815m128.976 15.276h45.89m-120.974-23.469 6.119-8.601m-6.119 8.601h-49.229m-4.663 8.193 4.663-8.193m0 0 4.895-8.601m100.908 0 7.71-9.04m-7.71 9.04h-50.455m50.455 0h50.45m-100.905 0 6.43-9.04m-6.43 9.04h-50.453m0 0 5.144-9.04m103.474 0h-51.735m51.735 0h51.74m-96.709-9.512-6.766 9.512m6.766-9.512 7.13-10.023m-7.13 10.023h-53.092m46.326 9.512h-51.739m155.214 0h51.74m-51.74 0-9 9.04m-146.214-9.04 5.413-9.512m140.801 18.552h50.45m-131.029-28.575 7.529-10.577m-7.529 10.577h-54.518m-5.704 10.023 5.704-10.023m0 0 6.02-10.577m112.047 0 9.54-11.177m-9.54 11.177h-56.02m56.02 0h56.02m-112.04 0 7.95-11.177m-7.95 11.177h-56.027m0 0 6.36-11.177m115.227 0h-57.61m57.61 0h57.61m-106.81-11.83-8.41 11.83m8.41-11.83 8.92-12.542m-8.92 12.542h-59.295m50.885 11.83h-57.617m172.837 0h57.62m-57.62 0-11.13 11.177m-161.707-11.177 6.732-11.83m154.975 23.007h56.02m-142.78-35.549 9.48-13.321m-9.48 13.321h-61.077m-7.138 12.542 7.138-12.542m0 0 7.58-13.321m125.957 0 12.09-14.173m-12.09 14.173h-62.98m62.98 0h62.97m-125.95 0 10.08-14.173m-10.08 14.173h-62.977m0 0 8.066-14.173m129.981 0h-64.99m64.99 0h65m-119.24-15.111-10.75 15.111m10.75-15.111 11.49-16.145m-11.49 16.145h-67.142m56.392 15.111h-64.991m194.981 0h64.99m-64.99 0-14.12 14.173m-180.861-14.173 8.599-15.111m172.262 29.284h62.98m-156.61-45.429 12.29-17.289m-12.29 17.289h-69.444m-9.188 16.145 9.188-16.145m0 0 9.844-17.289m143.79 0 15.84-18.559m-15.84 18.559h-71.9m71.9 0h71.9m-143.8 0 13.21-18.559m-13.21 18.559h-71.89m0 0 10.56-18.559m149.07 0h-74.53m74.53 0h74.54M1106.9 198.36l-14.2 19.973m14.2-19.973 15.34-21.557m-15.34 21.557h-77.38m63.18 19.973h-74.54m223.61 0h74.54m-74.54 0-18.48 18.559m-205.13-18.559 11.36-19.973m193.77 38.532h71.9m-172.95-60.089 16.6-23.336m-16.6 23.336h-80.45m-12.27 21.557 12.27-21.557m0 0 13.28-23.336m167.54 0 21.63-25.346m-21.63 25.346h-83.77m83.77 0h83.76m-167.53 0 18.03-25.346m-18.03 25.346h-83.77m0 0 14.42-25.346m174.75 0h-87.37m87.37 0h87.38m-155.1-27.625-19.65 27.625m19.65-27.625 21.5-30.227m-21.5 30.227h-91.3m71.65 27.625h-87.38m262.13 0h87.37m-87.37 0-25.25 25.346m-236.88-25.346 15.73-27.625m221.15 52.971h83.77m-192.12-83.198 23.63-33.217m-23.63 33.217h-95.6m-17.2 30.227 17.2-30.227m0 0 18.9-33.217m200.66 0 31.3-36.67m-31.3 36.67h-100.33m100.33 0h100.33m-200.66 0 26.09-36.67m-26.09 36.67h-100.33m0 0 20.87-36.67m105.55 0h105.54m-105.54 0h-105.55m211.09 0h86.33m-17.3 36.67 17.3-17.372m-17.3 17.372h17.3m-358.64 451.485 6.54-4.594m-6.54 4.594h-36.1m36.1 0h36.1m-77.87 4.434-5.49 4.281m5.49-4.281 5.67-4.434m-5.67 4.434h-35.47m29.98 4.281h-34.853m34.853 0-5.29 4.136m34.27 0h-34.27m34.27 0-2.16 1.515-3.53 2.484m5.69-3.999h34.27m-52.09-12.851 5.88-4.594m-5.88 4.594h-36.09m-5.05 4.434-4.873 4.281m4.873-4.281 5.05-4.434m-9.923 8.715-3.546 3.115-1.162 1.021m34.271 0-.65.508-4.47 3.491m5.12-3.999h-34.271m14.631-12.851 5.22-4.594m-54.119 17.445-3.983 3.999m3.983-3.999h34.268m0 0-1.725 1.515-2.827 2.484m97.913-21.444h-36.76m36.76 0h36.75m-67.41-4.763-6.1 4.763m6.1-4.763 6.33-4.942m-6.33 4.942h-37.42m31.32 4.763H1014m110.26 0h36.75m-36.75 0-7.19 4.594M1014 483.943l5.43-4.763m97.64 9.357h36.09m-89.98-14.299 1.62-1.264 4.95-3.867m-6.57 5.131h-38.13m-5.62 4.942 5.62-4.942m0 0 5.84-5.131m77.72 0 .94-.656 6.65-4.676m-7.59 5.332h-38.86m38.86 0h38.87m-77.73 0 6.83-5.332m-6.83 5.332h-38.86m0 0 .75-.656 5.32-4.676m79.24 0h-39.62m39.62 0h39.62m-72.14-5.544-7.1 5.544m7.1-5.544 7.39-5.769m-7.39 5.769h-40.41m33.31 5.544h-39.62m118.86 0h39.62m-39.62 0-8.34 5.332m-110.52-5.332 6.31-5.544m104.21 10.876h38.86m-95.27-16.645 7.69-6.009m-7.69 6.009h-41.23m-6.57 5.769 6.57-5.769m0 0 6.83-6.009m84.17 0 8.91-6.263m-8.91 6.263h-42.08m42.08 0h42.09m-84.17 0 8.02-6.263m-8.02 6.263h-42.09m0 0 7.13-6.263m85.95 0h-42.97m42.97 0h42.98m-77.59-6.534-8.36 6.534m8.36-6.534 8.74-6.822m-8.74 6.822h-43.9m35.54 6.534h-42.98m128.93 0h42.97m-42.97 0-9.8 6.263m-119.13-6.263 7.44-6.534m111.69 12.797h42.08m-101.13-19.619 9.13-7.132m-9.13 7.132H1079m-7.76 6.822 7.76-6.822m0 0 8.12-7.132m91.78 0 10.62-7.461m-10.62 7.461h-45.89m45.89 0h45.89m-91.78 0 9.56-7.461m-9.56 7.461h-45.89m0 0 8.49-7.461m93.91 0h-46.95m46.95 0h46.95m-83.9-7.815-10 7.815m10-7.815 10.49-8.193m-10.49 8.193h-48.06m38.06 7.815h-46.96m140.86 0h46.95m-46.95 0-11.68 7.461m-129.18-7.461 8.9-7.815m120.28 15.276h45.89m-107.62-23.469 11.02-8.601m-11.02 8.601h-49.23m-9.32 8.193 9.32-8.193m0 0 9.79-8.601m100.91 0 12.86-9.04m-12.86 9.04h-50.45m50.45 0h50.45m-100.9 0 11.57-9.04m-11.57 9.04h-50.46m0 0 10.29-9.04m103.48 0h-51.74m51.74 0h51.74m-91.3-9.512-12.18 9.512m12.18-9.512 12.83-10.023m-12.83 10.023h-53.09m40.91 9.512h-51.74m155.22 0h51.74m-51.74 0-14.15 9.04m-141.07-9.04 10.83-9.512m130.24 18.552h50.45m-114.77-28.575 13.55-10.577m-13.55 10.577h-54.51m-11.41 10.023 11.41-10.023m0 0 12.03-10.577m112.05 0 15.9-11.177m-15.9 11.177h-56.02m56.02 0h56.02m-112.04 0 14.31-11.177m-14.31 11.177h-56.03m0 0 12.73-11.177m115.22 0h-57.61m57.61 0h57.62m-100.08-11.83-15.15 11.83m15.15-11.83 16.06-12.542m-16.06 12.542h-59.3m44.15 11.83h-57.61m172.84 0h57.61m-57.61 0-17.5 11.177m-155.34-11.177 13.46-11.83m141.88 23.007h56.03m-122.55-35.549 17.05-13.321m-17.05 13.321h-61.08m-14.28 12.542 14.28-12.542m0 0 15.16-13.321m125.95 0 20.16-14.173m-20.16 14.173h-62.98m62.98 0h62.97m-125.95 0 18.15-14.173m-18.15 14.173h-62.97m0 0 16.13-14.173m129.98 0h-64.99m64.99 0h64.99m-110.63-15.111-19.35 15.111m19.35-15.111 20.67-16.145m-20.67 16.145h-67.14m47.79 15.111h-64.99m194.97 0-22.18 14.173m22.18-14.173h4.7m-4.7 0 4.7-3.002m-199.67 3.002 17.2-15.111m155.59 29.284h26.88m-94.66-45.429 22.14-17.289m-22.14 17.289h-69.44m-18.37 16.145 18.37-16.145m0 0 19.68-17.289m143.8 0h-71.9m71.9 0h.62m-.62 0 .62-.439m-72.52.439 23.76-18.559m-23.76 18.559h-71.9m0 0 21.12-18.559m100.12-19.973-25.58 19.973m25.58-19.973h-77.38m77.38 0h23.18m-23.18 0 23.18-18.107m-48.76 38.08h-74.54m74.54 0h48.76m-123.3 0 22.74-19.973m0 0 24.53-21.557m0 0 26.56-23.336m-26.56 23.336h76.03m-49.47-23.336 28.85-25.346m-28.85 25.346h49.47m-20.62-25.346 20.62.001m-20.62-.001 20.62-18.119m-214.25 378.535 9.15-4.594m-9.15 4.594h-36.1m36.1 0h36.09m-80.39 4.434-7.92 4.281m7.92-4.281 8.2-4.434m-8.2 4.434h-35.47m27.55 4.281h-34.85m34.85 0-7.65 4.136m34.27 0h-34.27m34.27 0-7.96 3.999m7.96-3.999h34.27m-44.77-12.851 8.5-4.594m-8.5 4.594h-36.1m-7.57 4.434-7.3 4.281m7.3-4.281 7.57-4.434m-14.87 8.715-7.07 4.136m34.27 0-.94.508-6.45 3.491m7.39-3.999h-34.27m21.94-12.851 7.85-4.594m-64.05 17.445-6.26 3.999m6.26-3.999h34.26m0 0-.86.508-5.96 3.491m110.11-21.444h-36.75m36.75 0h36.75m-64.69-4.763-8.81 4.763m8.81-4.763 9.14-4.942m-9.14 4.942h-37.43m28.62 4.763h-36.75m110.25 0h36.75m-36.75 0-9.81 4.594m-100.44-4.594 8.13-4.763m92.31 9.357h36.1m-81.84-14.299 9.49-5.131m-9.49 5.131h-38.13m-8.44 4.942 1.04-.607 7.4-4.335m0 0 8.76-5.131m77.72 0 10.62-5.332m-10.62 5.332h-38.86m38.86 0h38.86m-77.72 0 9.86-5.332m-9.86 5.332h-38.86m0 0 9.1-5.332m79.24 0h-39.62m39.62 0h39.62m-68.99-5.544-10.25 5.544m10.25-5.544 10.67-5.769m-10.67 5.769h-40.41m30.16 5.544h-39.62m118.86 0h39.62m-39.62 0-11.38 5.332m-107.48-5.332 9.46-5.544m98.02 10.876h38.86m-85.8-16.645 11.12-6.009m-11.12 6.009h-41.23m-9.85 5.769 9.85-5.769m0 0 10.26-6.009m84.17 0 12.48-6.263m-12.48 6.263h-42.08m42.08 0h42.09m-84.17 0 11.58-6.263m-11.58 6.263h-42.09m0 0 10.69-6.263m85.96 0h-42.98m42.98 0h42.97m-73.87-6.534-12.08 6.534m12.08-6.534 12.62-6.822m-12.62 6.822h-43.9m31.82 6.534h-42.98m128.93 0h42.98m-42.98 0-13.36 6.263m-115.57-6.263 11.16-6.534m104.41 12.797h42.08m-89.97-19.619 13.19-7.132m-13.19 7.132h-44.87m-11.65 6.822 11.65-6.822m0 0 12.17-7.132m91.78 0 14.86-7.461m-14.86 7.461h-45.89m45.89 0h45.89m-91.78 0 13.8-7.461m-13.8 7.461h-45.89m0 0 12.74-7.461m93.9 0h-46.95m14.46-7.815-14.46 7.815m14.46-7.815 15.15-8.193m-15.15 8.193h-48.07m33.61 7.815h-46.95m0 0 13.34-7.815m111.59 15.276h31.26m-79.63-23.469 15.91-8.601m-15.91 8.601h-49.23m-13.99 8.193 13.99-8.193m0 0 14.68-8.601m100.91 0h-50.45m50.45 0h13.27m-13.27 0 13.27-6.663m-63.72 6.663 16.72-9.04m-16.72 9.04h-50.46m0 0 15.44-9.04m69.33-9.512-17.59 9.512m17.59-9.512 18.54-10.023m-18.54 10.023h-53.09m53.09 0h29.41m-47 9.512h-51.74m51.74 0h47m-98.74 0 16.24-9.512m82.65 11.815-.15.074m-10.87-21.912h-54.52m54.52 0h10.87m-10.87 0 10.87-5.88m-82.5 15.903 17.11-10.023m0 0 18.06-10.577m0 0 19.08-11.177m-19.08 11.177h47.33m-8.05-23.007-20.2 11.83m20.2-11.83h8.05m-8.05 0 8.05-4.719m-28.25 16.549h28.25m-69.87 151.234 11.77-4.594m-11.77 4.594h-36.09m36.09 0h36.1m-82.91 4.434-10.36 4.281m10.36-4.281 10.72-4.434m-10.72 4.434h-35.47m25.11 4.281h-34.86m34.86 0-10 4.136m34.27 0h-34.27m34.27 0-10.24 3.999m10.24-3.999h34.26m-37.45-12.851 11.11-4.594m-11.11 4.594h-36.1m-10.09 4.434-9.75 4.281m9.75-4.281 10.09-4.434m-19.84 8.715-9.41 4.136m34.27 0h-34.27m34.27 0-9.68 3.999m4.66-16.85 10.46-4.594m-73.98 17.445-8.53 3.999m8.53-3.999h34.27m0 0-9.1 3.999m122.31-21.444h-36.75m36.75 0h36.75m-61.98-4.763-11.52 4.763m11.52-4.763 11.95-4.942m-11.95 4.942h-37.43m25.91 4.763h-36.75m110.25 0-12.42 4.594m12.42-4.594h21.35m-131.6 0 10.84-4.763m86.99 9.357h33.77m-71.38-14.299 12.41-5.131m-12.41 5.131h-38.13m-11.25 4.942 11.25-4.942m0 0 11.68-5.131m77.72 0 13.66-5.332m-13.66 5.332h-38.86m38.86 0h20.11m-58.97 0 12.9-5.332m-12.9 5.332h-38.86m0 0 12.14-5.332m53.03-5.544-13.41 5.544m13.41-5.544 13.95-5.769m-13.95 5.769h-40.41m40.41 0h32.66m-46.07 5.544h39.62m-39.62 0h-39.62m79.24 0 6.45-2.52m-6.45 2.52h6.45m-85.69 0 12.62-5.544m54.36-5.769 14.53-6.009m-14.53 6.009h-41.23m41.23 0h18.71m-73.07 5.769 13.13-5.769m0 0 13.68-6.009m42.08 0h-42.08m42.08 0 4.18-1.727m-4.18 1.727h4.18m-46.26 0 14.26-6.263m14.87-6.534-14.87 6.534m14.87-6.534 15.53-6.822m-15.53 6.822h17.13m-32 6.534h32m.23 0h-.23m-1.6-13.356h1.6m-1.6 0 1.6-.704m.39-.171-.39.171m-10.29 66.841-12.18 4.281m12.18-4.281h10.29m-10.29 0 10.29-3.616m-22.47 7.897-11.77 4.136m11.77-4.136h22.47m-68.51 4.136-10.81 3.999m10.81-3.999h34.27m0 0-11.38 3.999m11.38-3.999h34.24m-1191.406 3.999h-33.7m33.7 0h33.7m-59.144 3.868-2.038-.955-6.218-2.913m8.256 3.868h-33.15m24.894-3.868h-33.699m8.805 3.868-2.174-.955-1.094-.48-5.537-2.433m0 0h-33.7m0 0h-33.7m168.499 0h33.699m-202.198 0h-33.7m0 0 10.458 3.868m-10.458-3.868h-33.7m44.158 3.868h-33.15m325.99-3.868h-33.7m33.7 0h33.7m-61.346 3.868-1.494-.955-.753-.48-3.807-2.433m6.054 3.868h-33.149m27.095-3.868h-33.7m6.605 3.868-6.605-3.868m101.1 0h33.699m67.4 0h-33.7m33.7 0h33.699m-63.546 3.868-.475-.476-.476-.479-.479-.48-2.423-2.433m3.853 3.868h-33.149m29.296-3.868h-33.7m4.404 3.868-4.404-3.868m101.099 0h33.701m67.399 0h-33.7m33.7 0H686.3m-65.748 3.868-1.651-3.868m1.651 3.868h-33.15m31.499-3.868h-33.699m2.2 3.868-.271-.476-.272-.479-.274-.48-1.383-2.433m101.098 0H720m67.399 0H753.7m33.699 0h33.7m-67.95 3.868.551-3.868m-.551 3.868H720m33.7-3.868H720m0 3.868v-3.868m101.099 0h33.7m67.399 0h-33.699m33.699 0h33.7m-70.151 3.868.679-.955 1.376-1.933.697-.98m-2.752 3.868h-33.149m35.901-3.868h-33.7m-2.201 3.868.271-.476.272-.479.274-.48 1.384-2.433m101.099 0h33.699m67.403 0h-33.7m33.7 0h33.7m-72.36 3.868 1.23-.955.61-.48 3.12-2.433m-4.96 3.868h-33.146m38.106-3.868h-33.703m-4.403 3.868.543-.476 3.86-3.392m101.103 0h33.7m67.4 0h-33.7m33.7 0h33.7m-74.56 3.868 1.77-.955.89-.48 4.5-2.433m-7.16 3.868h-33.15m40.31-3.868h-33.7m-6.61 3.868.82-.476 5.79-3.392m101.1 0h33.7m67.4 0h-33.71m33.71 0h33.69m-76.75 3.868 9.35-3.868m-9.35 3.868h-33.15m42.5-3.868h-33.69m-8.81 3.868 2.17-.955 1.1-.48 5.54-2.433m101.09 0h33.7m22.15 3.868 11.55-3.868m-11.55 3.868h-33.15m33.15 0h23.47m-11.92-3.868h-33.7m33.7 0 11.92-3.989m-11.92 3.989h11.92m-56.62 3.868 2.71-.955 8.29-2.913M57.014 509.255l-2.719-.955-8.29-2.913m0 0H12.307m0 0-11.92-3.989m11.92 3.989H.386m0-184.633v4.718m0-4.718v-7.823m0 12.541v11.831m0-24.372V299.61m0 0v-14.173m0 126.804v7.461m0-7.461v-7.187m0 104.201v-3.868m0 0v-3.989m0 0-.029-.01h.03m0 .01v-.01m0 0v-4.136m0 0v-4.281m0 0v-3.616m0 0v-.818m0 0v-4.594m0 0v-4.763m0 0v-3.135m0 0v-1.807m0 0v-5.131m0 0v-5.332m0 0v-2.52m0 0v-3.024m0 0v-5.77m0 0v-6.008m0 0v-1.728m0 0v-4.535m0 0v-6.534m0 0v-6.822m0 0v-.705m0 0v-6.427m0-15.276v-8.193m0 8.193v.628m0-8.821v-8.601m0 0v-6.663m0 0v-2.377m0 0v-9.512m0 0v-10.023m0 0v-5.88m0 0v-4.697m0 0v-11.177m0-51.866v-3.002m0 0v-12.109m0 0v-16.145m0 0v-17.289m0 0v-.439m0 0v-18.12m0 0V198.36m0 0v-18.107m0 0v-3.45m0 0v-23.336m0 0v-25.346m0 0v-18.119m0 0v-9.506m0 0V70.269m0 0V37.052m0 0V19.68m0 0V.382m0 0V.25H1439.61v.13m0 404.045v-8.193m0 8.193v.628m0 0v7.187m0 0v7.461m0 0v6.428m0 0v.704m0 0v6.822m0 0v6.534m0 0v4.536m0 0v1.727m0 0v6.009m0 0v5.769m0 0v3.024m0 0v2.52m0 0v5.332m0 0v5.131m0 0v1.807m0 0v3.135m0 0v4.763m0 0v4.594m0 0v.818m0 0v3.616m0 0v4.281m0 0v4.136m0 0h.03l-.03.01m0-.01v.01m0 0v3.989m0 0v3.868m0-508.873V19.68m0 0v17.372m0 0v33.216m0 0v30.228m0 0v9.506m0 0v18.12m0 0v25.345m0 0v23.336m0 0v3.45m0 0v18.107m0 0v19.973m0 0v18.12m0 0v.439m0 0v17.289m0 0v16.145m0 0v12.109m0 0v3.002m0 0v14.173m0 0v13.321m0 0v7.823m0 0v4.719m0 0v11.83m0 0v11.177m0 0v4.697m0 0v5.88m0 0v10.023m0 0v9.512m0 0v2.377m0 0v6.663m0 0v8.601"/><defs><linearGradient id="a" x1="720" x2="720" y1="513" y2="153.5" gradientUnits="userSpaceOnUse"><stop stop-color="#FAFAFA" stop-opacity="0"/><stop offset="1" stop-color="#FAFAFA"/></linearGradient></defs></svg>